<svg xmlns="http://www.w3.org/2000/svg" xmlns:xlink="http://www.w3.org/1999/xlink" version="1.1" width="256" height="256" viewBox="0 0 256 256" xml:space="preserve">

<defs>
</defs>
<g style="stroke: none; stroke-width: 0; stroke-dasharray: none; stroke-linecap: butt; stroke-linejoin: miter; stroke-miterlimit: 10; fill: none; fill-rule: nonzero; opacity: 1;" transform="translate(0 0) scale(2.81 2.81)" >
	<path d="M 45 90 C 20.187 90 0 69.814 0 45 C 0 20.187 20.187 0 45 0 c 24.814 0 45 20.187 45 45 C 90 69.814 69.814 90 45 90 z M 45 5.625 C 23.289 5.625 5.625 23.289 5.625 45 c 0 21.712 17.664 39.375 39.375 39.375 c 21.712 0 39.375 -17.663 39.375 -39.375 C 84.375 23.289 66.712 5.625 45 5.625 z" style="stroke: none; stroke-width: 1; stroke-dasharray: none; stroke-linecap: butt; stroke-linejoin: miter; stroke-miterlimit: 10; fill: rgb(0,0,0); fill-rule: nonzero; opacity: 1;" transform=" matrix(1 0 0 1 0 0) " stroke-linecap="round" />
</g>
<g style="stroke: none; stroke-width: 0; stroke-dasharray: none; stroke-linecap: butt; stroke-linejoin: miter; stroke-miterlimit: 10; fill: none; fill-rule: nonzero; opacity: 1;" transform="translate(46.17984832069338 46.17984832069338) scale(1.82 1.82)" >
	<path d="M 45 0 C 20.147 0 0 20.147 0 45 c 0 24.853 20.147 45 45 45 c 24.853 0 45 -20.147 45 -45 C 90 20.147 69.853 0 45 0 z M 48.668 56.763 c -3.105 0 -6.025 -1.613 -7.024 -3.519 c 0 0 -1.537 5.851 -1.909 7.285 c -0.692 2.662 -3.763 7.886 -5.66 9.471 l -0.243 -2.17 c -0.268 -2.425 -0.51 -6.153 0.106 -8.8 c 0.557 -2.392 3.594 -15.234 3.594 -15.234 s -0.917 -1.836 -0.917 -4.55 c 0 -4.261 2.47 -7.443 5.545 -7.443 c 2.615 0 3.878 1.963 3.878 4.317 c 0 2.629 -1.674 6.561 -2.538 10.204 c -0.722 3.05 1.53 5.538 4.538 5.538 c 5.447 0 9.634 -5.743 9.634 -14.034 c 0 -7.338 -5.273 -12.468 -12.801 -12.468 c -8.72 0 -13.838 6.541 -13.838 13.3 c 0 2.634 1.015 5.459 2.281 6.994 c 0.25 0.303 0.287 0.569 0.213 0.879 c -0.233 0.968 -0.75 3.05 -0.851 3.476 c -0.134 0.561 -0.444 0.68 -1.025 0.41 c -3.828 -1.782 -6.221 -7.378 -6.221 -11.873 c 0 -9.668 7.024 -18.546 20.25 -18.546 c 10.631 0 18.893 7.576 18.893 17.7 C 64.572 48.262 57.912 56.763 48.668 56.763 z" style="stroke: none; stroke-width: 1; stroke-dasharray: none; stroke-linecap: butt; stroke-linejoin: miter; stroke-miterlimit: 10; fill: rgb(0,0,0); fill-rule: nonzero; opacity: 1;" transform=" matrix(1 0 0 1 0 0) " stroke-linecap="round" />
</g>
</svg>